<svg xmlns="http://www.w3.org/2000/svg" width="1024" height="1024" viewBox="0 0 1024 1024">
<g>
<path d="M 802.50 938.10 C795.67,939.44 260.00,940.30 236.00,939.01 C222.33,938.28 220.58,938.04 209.07,935.33 C188.59,930.51 162.14,917.27 146.52,904.03 C123.08,884.16 105.90,859.01 96.29,830.50 C94.62,825.55 92.71,818.80 92.05,815.50 C91.38,812.20 90.42,807.61 89.92,805.31 C89.37,802.82 89.01,683.15 89.02,510.31 C89.02,498.75 89.02,487.65 89.02,476.99 C89.03,232.75 89.03,218.40 91.88,204.63 C92.19,203.17 92.52,201.72 92.89,200.00 C95.02,190.09 99.27,178.82 105.88,165.50 C129.59,117.74 171.71,86.87 225.12,78.09 C229.77,77.32 314.80,77.01 512.12,77.02 C526.03,77.02 539.27,77.02 551.86,77.02 C783.16,77.02 797.80,77.02 811.60,80.45 C813.28,80.86 814.95,81.33 817.00,81.86 C828.39,84.78 833.50,86.72 845.47,92.71 C864.61,102.27 874.67,109.51 889.57,124.42 C903.84,138.69 917.85,160.00 924.80,178.00 C928.91,188.64 933.14,206.45 934.51,218.88 C935.47,227.55 934.98,793.80 934.01,801.50 C931.67,820.08 927.41,834.26 919.28,850.48 C908.50,872.00 895.57,887.92 875.50,904.41 C862.58,915.02 861.39,915.82 849.50,921.82 C829.76,931.78 823.28,934.02 802.50,938.10 ZM 497.97 859.78 C503.28,861.64 506.12,862.00 513.14,861.73 C521.38,861.41 522.32,861.12 533.36,855.59 C555.19,844.65 594.23,820.59 617.07,804.00 C697.43,745.62 752.19,677.76 783.70,597.50 C794.30,570.50 798.95,555.96 804.48,532.50 C808.78,514.29 809.72,509.62 811.97,495.50 C812.58,491.65 813.50,486.02 814.02,483.00 C814.54,479.98 815.97,468.05 817.21,456.50 C819.30,436.83 819.45,431.01 819.47,364.50 C819.50,296.97 819.41,293.33 817.63,290.00 C810.24,276.20 800.94,271.73 774.00,269.00 C767.67,268.36 760.03,267.45 757.00,266.98 C753.97,266.51 748.12,265.61 744.00,264.99 C739.88,264.36 734.70,263.45 732.50,262.97 C709.78,258.01 702.58,256.27 690.50,252.83 C677.21,249.05 654.78,241.16 645.00,236.83 C630.80,230.55 605.25,216.86 591.50,208.18 C585.15,204.17 581.08,201.25 564.10,188.56 C557.75,183.82 543.21,171.21 534.00,162.47 C525.11,154.03 520.86,152.00 512.03,152.00 C507.06,152.00 503.72,152.59 500.72,154.00 C498.38,155.10 489.50,162.33 480.98,170.06 C453.14,195.33 427.66,212.81 396.58,227.96 C377.83,237.10 347.13,249.11 332.50,253.02 C330.85,253.46 325.90,254.80 321.50,256.00 C301.71,261.40 281.88,264.99 249.50,269.03 C231.51,271.27 227.09,272.20 221.35,274.92 C215.06,277.90 208.86,283.96 206.71,289.23 C202.95,298.46 202.80,301.83 203.37,363.00 C203.98,428.24 204.79,445.18 208.96,480.00 C210.58,493.56 216.37,523.75 219.89,537.00 C226.55,562.02 225.69,559.31 236.30,589.13 C241.49,603.71 241.83,604.52 251.51,624.50 C286.27,696.24 338.95,756.36 413.16,809.01 C441.36,829.01 485.43,855.39 497.97,859.78 ZM 509.23 705.92 C500.99,710.14 487.09,709.62 481.33,704.86 C479.38,703.26 444.62,667.93 417.01,639.50 C406.33,628.50 396.22,618.13 394.54,616.46 C378.52,600.49 374.00,595.17 374.75,593.16 C376.00,589.78 400.58,564.43 404.34,562.64 C408.76,560.55 413.26,560.56 417.72,562.67 C419.66,563.59 436.07,579.00 454.19,596.92 C472.30,614.84 487.48,629.63 487.90,629.78 C488.59,630.03 530.42,587.24 585.00,530.46 C631.07,482.54 677.58,434.40 689.32,422.50 L 702.14 409.50 L 704.15 411.96 C710.76,420.04 720.26,439.96 724.53,454.69 C727.90,466.32 727.99,478.86 724.75,484.83 C723.51,487.12 703.83,508.15 681.00,531.57 C641.21,572.41 626.40,587.65 548.71,667.67 C523.68,693.46 512.61,704.18 509.23,705.92 ZM 379.85 563.65 C370.87,572.64 362.99,580.00 362.34,580.00 C360.08,580.00 337.82,555.40 330.86,545.21 C307.51,510.98 300.86,475.59 310.88,438.99 C316.68,417.83 326.21,401.79 342.38,385.99 C363.58,365.27 391.09,354.30 421.00,354.64 C435.20,354.81 443.22,356.02 454.00,359.63 C473.16,366.05 489.40,376.29 503.92,391.11 L 511.95 399.30 L 518.58 392.14 C534.81,374.61 557.22,361.99 582.16,356.35 C591.81,354.17 615.62,354.17 625.63,356.36 C647.84,361.22 666.13,370.93 683.20,386.92 L 690.41 393.67 L 674.65 410.59 C665.99,419.89 658.52,427.63 658.06,427.80 C657.60,427.96 653.89,424.81 649.82,420.80 C641.92,413.02 635.62,409.07 626.29,406.04 C607.43,399.92 590.20,401.02 572.22,409.50 C562.40,414.13 554.65,420.29 545.47,430.75 C517.37,462.82 517.17,463.00 510.98,463.00 C505.34,463.00 502.66,460.62 487.95,442.50 C467.90,417.80 452.70,407.19 432.00,403.43 C422.32,401.67 418.17,401.68 409.00,403.45 C386.81,407.74 372.63,417.11 362.15,434.40 C356.53,443.67 351.98,459.67 352.02,470.00 C352.06,481.17 357.19,500.16 362.82,510.00 C366.79,516.94 375.79,527.56 386.47,537.90 L 396.18 547.30 Z" fill="rgb(40,160,83)"/>
<path d="M 0.00 512.00 L 0.00 0.00 L 512.00 0.00 L 1024.00 0.00 L 1024.00 512.00 L 1024.00 1024.00 L 512.00 1024.00 L 0.00 1024.00 L 0.00 512.00 ZM 802.50 938.10 C823.28,934.02 829.76,931.78 849.50,921.82 C861.39,915.82 862.58,915.02 875.50,904.41 C895.57,887.92 908.50,872.00 919.28,850.48 C927.41,834.26 931.67,820.08 934.01,801.50 C934.98,793.80 935.47,227.55 934.51,218.88 C933.14,206.45 928.91,188.64 924.80,178.00 C917.85,160.00 903.84,138.69 889.57,124.42 C874.67,109.51 864.61,102.27 845.47,92.71 C833.50,86.72 828.39,84.78 817.00,81.86 C797.24,76.79 812.75,77.04 512.12,77.02 C314.80,77.01 229.77,77.32 225.12,78.09 C171.71,86.87 129.59,117.74 105.88,165.50 C99.27,178.82 95.02,190.09 92.89,200.00 C88.88,218.65 89.04,205.92 89.02,510.31 C89.01,683.15 89.37,802.82 89.92,805.31 C90.42,807.61 91.38,812.20 92.05,815.50 C92.71,818.80 94.62,825.55 96.29,830.50 C105.90,859.01 123.08,884.16 146.52,904.03 C162.14,917.27 188.59,930.51 209.07,935.33 C220.58,938.04 222.33,938.28 236.00,939.01 C260.00,940.30 795.67,939.44 802.50,938.10 ZM 497.97 859.78 C485.43,855.39 441.36,829.01 413.16,809.01 C338.95,756.36 286.27,696.24 251.51,624.50 C241.83,604.52 241.49,603.71 236.30,589.13 C225.69,559.31 226.55,562.02 219.89,537.00 C216.37,523.75 210.58,493.56 208.96,480.00 C204.79,445.18 203.98,428.24 203.37,363.00 C202.80,301.83 202.95,298.46 206.71,289.23 C208.86,283.96 215.06,277.90 221.35,274.92 C227.09,272.20 231.51,271.27 249.50,269.03 C281.88,264.99 301.71,261.40 321.50,256.00 C325.90,254.80 330.85,253.46 332.50,253.02 C347.13,249.11 377.83,237.10 396.58,227.96 C427.66,212.81 453.14,195.33 480.98,170.06 C489.50,162.33 498.38,155.10 500.72,154.00 C503.72,152.59 507.06,152.00 512.03,152.00 C520.86,152.00 525.11,154.03 534.00,162.47 C543.21,171.21 557.75,183.82 564.10,188.56 C581.08,201.25 585.15,204.17 591.50,208.18 C605.25,216.86 630.80,230.55 645.00,236.83 C654.78,241.16 677.21,249.05 690.50,252.83 C702.58,256.27 709.78,258.01 732.50,262.97 C734.70,263.45 739.88,264.36 744.00,264.99 C748.12,265.61 753.97,266.51 757.00,266.98 C760.03,267.45 767.67,268.36 774.00,269.00 C800.94,271.73 810.24,276.20 817.63,290.00 C819.41,293.33 819.50,296.97 819.47,364.50 C819.45,431.01 819.30,436.83 817.21,456.50 C815.97,468.05 814.54,479.98 814.02,483.00 C813.50,486.02 812.58,491.65 811.97,495.50 C809.72,509.62 808.78,514.29 804.48,532.50 C798.95,555.96 794.30,570.50 783.70,597.50 C752.19,677.76 697.43,745.62 617.07,804.00 C594.23,820.59 555.19,844.65 533.36,855.59 C522.32,861.12 521.38,861.41 513.14,861.73 C506.12,862.00 503.28,861.64 497.97,859.78 ZM 509.23 705.92 C512.61,704.18 523.68,693.46 548.71,667.67 C626.40,587.65 641.21,572.41 681.00,531.57 C703.83,508.15 723.51,487.12 724.75,484.83 C727.99,478.86 727.90,466.32 724.53,454.69 C720.26,439.96 710.76,420.04 704.15,411.96 L 702.14 409.50 L 689.32 422.50 C677.58,434.40 631.07,482.54 585.00,530.46 C530.42,587.24 488.59,630.03 487.90,629.78 C487.48,629.63 472.30,614.84 454.19,596.92 C436.07,579.00 419.66,563.59 417.72,562.67 C413.26,560.56 408.76,560.55 404.34,562.64 C400.58,564.43 376.00,589.78 374.75,593.16 C374.00,595.17 378.52,600.49 394.54,616.46 C396.22,618.13 406.33,628.50 417.01,639.50 C444.62,667.93 479.38,703.26 481.33,704.86 C487.09,709.62 500.99,710.14 509.23,705.92 ZM 379.85 563.65 L 396.18 547.30 L 386.47 537.90 C375.79,527.56 366.79,516.94 362.82,510.00 C357.19,500.16 352.06,481.17 352.02,470.00 C351.98,459.67 356.53,443.67 362.15,434.40 C372.63,417.11 386.81,407.74 409.00,403.45 C418.17,401.68 422.32,401.67 432.00,403.43 C452.70,407.19 467.90,417.80 487.95,442.50 C502.66,460.62 505.34,463.00 510.98,463.00 C517.17,463.00 517.37,462.82 545.47,430.75 C554.65,420.29 562.40,414.13 572.22,409.50 C590.20,401.02 607.43,399.92 626.29,406.04 C635.62,409.07 641.92,413.02 649.82,420.80 C653.89,424.81 657.60,427.96 658.06,427.80 C658.52,427.63 665.99,419.89 674.65,410.59 L 690.41 393.67 L 683.20 386.92 C666.13,370.93 647.84,361.22 625.63,356.36 C615.62,354.17 591.81,354.17 582.16,356.35 C557.22,361.99 534.81,374.61 518.58,392.14 L 511.95 399.30 L 503.92 391.11 C489.40,376.29 473.16,366.05 454.00,359.63 C443.22,356.02 435.20,354.81 421.00,354.64 C391.09,354.30 363.58,365.27 342.38,385.99 C326.21,401.79 316.68,417.83 310.88,438.99 C300.86,475.59 307.51,510.98 330.86,545.21 C337.82,555.40 360.08,580.00 362.34,580.00 C362.99,580.00 370.87,572.64 379.85,563.65 Z" fill="rgb(244,237,222)"/>
</g>
</svg>